<mxfile host="Electron" modified="2025-01-08T18:49:33.165Z" agent="Mozilla/5.0 (Windows NT 10.0; Win64; x64) AppleWebKit/537.36 (KHTML, like Gecko) draw.io/24.4.0 Chrome/120.0.6099.109 Electron/28.1.0 Safari/537.36" etag="PAYALENfkMAXy-inJ44A" version="24.4.0" type="device" pages="4">
  <diagram name="ComunicareFE-BE" id="-WEjqGRhGccou9gLVcyB">
    <mxGraphModel dx="2314" dy="1196" grid="1" gridSize="10" guides="1" tooltips="1" connect="1" arrows="1" fold="1" page="1" pageScale="1" pageWidth="850" pageHeight="1100" math="0" shadow="0">
      <root>
        <mxCell id="0" />
        <mxCell id="1" parent="0" />
        <mxCell id="d-rR6m4FALJZKi-9W2MD-3" style="edgeStyle=orthogonalEdgeStyle;rounded=0;orthogonalLoop=1;jettySize=auto;html=1;entryX=1;entryY=0.5;entryDx=0;entryDy=0;" parent="1" source="d-rR6m4FALJZKi-9W2MD-1" target="d-rR6m4FALJZKi-9W2MD-2" edge="1">
          <mxGeometry relative="1" as="geometry" />
        </mxCell>
        <mxCell id="d-rR6m4FALJZKi-9W2MD-4" value="Refit calls&lt;br&gt;Using function key authentication" style="edgeLabel;html=1;align=center;verticalAlign=middle;resizable=0;points=[];" parent="d-rR6m4FALJZKi-9W2MD-3" vertex="1" connectable="0">
          <mxGeometry x="0.0909" relative="1" as="geometry">
            <mxPoint as="offset" />
          </mxGeometry>
        </mxCell>
        <mxCell id="d-rR6m4FALJZKi-9W2MD-1" value="UI" style="rounded=1;whiteSpace=wrap;html=1;" parent="1" vertex="1">
          <mxGeometry x="490" y="315" width="210" height="120" as="geometry" />
        </mxCell>
        <mxCell id="d-rR6m4FALJZKi-9W2MD-2" value="Azure Orchestration Function&lt;br&gt;(BE)" style="rounded=1;whiteSpace=wrap;html=1;" parent="1" vertex="1">
          <mxGeometry x="50" y="320" width="190" height="110" as="geometry" />
        </mxCell>
        <mxCell id="4EZIjzrmQYcTo2woEn7P-1" value="Actor" style="shape=umlActor;verticalLabelPosition=bottom;verticalAlign=top;html=1;outlineConnect=0;" parent="1" vertex="1">
          <mxGeometry x="570" y="600" width="30" height="60" as="geometry" />
        </mxCell>
        <mxCell id="4EZIjzrmQYcTo2woEn7P-2" style="edgeStyle=orthogonalEdgeStyle;rounded=0;orthogonalLoop=1;jettySize=auto;html=1;entryX=0.457;entryY=0.992;entryDx=0;entryDy=0;entryPerimeter=0;" parent="1" source="4EZIjzrmQYcTo2woEn7P-1" target="d-rR6m4FALJZKi-9W2MD-1" edge="1">
          <mxGeometry relative="1" as="geometry" />
        </mxCell>
        <mxCell id="4EZIjzrmQYcTo2woEn7P-3" value="Google login" style="edgeLabel;html=1;align=center;verticalAlign=middle;resizable=0;points=[];" parent="4EZIjzrmQYcTo2woEn7P-2" vertex="1" connectable="0">
          <mxGeometry x="-0.0537" y="2" relative="1" as="geometry">
            <mxPoint as="offset" />
          </mxGeometry>
        </mxCell>
        <mxCell id="4EZIjzrmQYcTo2woEn7P-6" style="edgeStyle=orthogonalEdgeStyle;rounded=0;orthogonalLoop=1;jettySize=auto;html=1;entryX=0.689;entryY=1.018;entryDx=0;entryDy=0;entryPerimeter=0;exitX=0.176;exitY=1.008;exitDx=0;exitDy=0;exitPerimeter=0;" parent="1" source="d-rR6m4FALJZKi-9W2MD-1" target="d-rR6m4FALJZKi-9W2MD-2" edge="1">
          <mxGeometry relative="1" as="geometry">
            <Array as="points">
              <mxPoint x="527" y="460" />
              <mxPoint x="181" y="460" />
            </Array>
          </mxGeometry>
        </mxCell>
        <mxCell id="4EZIjzrmQYcTo2woEn7P-7" value="Based on role&lt;br&gt;get function key from key vault storage" style="edgeLabel;html=1;align=center;verticalAlign=middle;resizable=0;points=[];" parent="4EZIjzrmQYcTo2woEn7P-6" vertex="1" connectable="0">
          <mxGeometry x="-0.1208" y="2" relative="1" as="geometry">
            <mxPoint as="offset" />
          </mxGeometry>
        </mxCell>
        <mxCell id="HsWIfyKp3qy2NymHjwzC-1" style="edgeStyle=orthogonalEdgeStyle;rounded=0;orthogonalLoop=1;jettySize=auto;html=1;entryX=0.462;entryY=0.017;entryDx=0;entryDy=0;entryPerimeter=0;" parent="1" source="d-rR6m4FALJZKi-9W2MD-2" target="d-rR6m4FALJZKi-9W2MD-1" edge="1">
          <mxGeometry relative="1" as="geometry">
            <Array as="points">
              <mxPoint x="145" y="250" />
              <mxPoint x="587" y="250" />
            </Array>
          </mxGeometry>
        </mxCell>
        <mxCell id="HsWIfyKp3qy2NymHjwzC-2" value="Send updates via SignalR" style="edgeLabel;html=1;align=center;verticalAlign=middle;resizable=0;points=[];" parent="HsWIfyKp3qy2NymHjwzC-1" vertex="1" connectable="0">
          <mxGeometry x="-0.0881" y="2" relative="1" as="geometry">
            <mxPoint as="offset" />
          </mxGeometry>
        </mxCell>
        <mxCell id="HsWIfyKp3qy2NymHjwzC-3" value="1" style="text;html=1;align=center;verticalAlign=middle;resizable=0;points=[];autosize=1;strokeColor=none;fillColor=none;" parent="1" vertex="1">
          <mxGeometry x="360" y="480" width="30" height="30" as="geometry" />
        </mxCell>
        <mxCell id="HsWIfyKp3qy2NymHjwzC-4" value="2" style="text;html=1;align=center;verticalAlign=middle;resizable=0;points=[];autosize=1;strokeColor=none;fillColor=none;" parent="1" vertex="1">
          <mxGeometry x="340" y="330" width="30" height="30" as="geometry" />
        </mxCell>
        <mxCell id="HsWIfyKp3qy2NymHjwzC-5" value="3" style="text;html=1;align=center;verticalAlign=middle;resizable=0;points=[];autosize=1;strokeColor=none;fillColor=none;" parent="1" vertex="1">
          <mxGeometry x="330" y="218" width="30" height="30" as="geometry" />
        </mxCell>
      </root>
    </mxGraphModel>
  </diagram>
  <diagram id="2neGOry5R1bWN9nzpVEm" name="UseCase">
    <mxGraphModel dx="1928" dy="2097" grid="1" gridSize="10" guides="1" tooltips="1" connect="1" arrows="1" fold="1" page="1" pageScale="1" pageWidth="850" pageHeight="1100" math="0" shadow="0">
      <root>
        <mxCell id="0" />
        <mxCell id="1" parent="0" />
        <mxCell id="Ru7vSebejaAHonJVlTWT-19" style="edgeStyle=orthogonalEdgeStyle;rounded=0;orthogonalLoop=1;jettySize=auto;html=1;entryX=0.5;entryY=0;entryDx=0;entryDy=0;" edge="1" parent="1" source="Ru7vSebejaAHonJVlTWT-1" target="Ru7vSebejaAHonJVlTWT-18">
          <mxGeometry relative="1" as="geometry" />
        </mxCell>
        <mxCell id="Ru7vSebejaAHonJVlTWT-1" value="Authentication" style="rounded=0;whiteSpace=wrap;html=1;" vertex="1" parent="1">
          <mxGeometry x="340" y="150" width="120" height="60" as="geometry" />
        </mxCell>
        <mxCell id="Ru7vSebejaAHonJVlTWT-7" style="edgeStyle=orthogonalEdgeStyle;rounded=0;orthogonalLoop=1;jettySize=auto;html=1;entryX=0.5;entryY=0;entryDx=0;entryDy=0;" edge="1" parent="1" source="Ru7vSebejaAHonJVlTWT-2" target="Ru7vSebejaAHonJVlTWT-3">
          <mxGeometry relative="1" as="geometry" />
        </mxCell>
        <mxCell id="Ru7vSebejaAHonJVlTWT-2" value="Booking" style="rounded=0;whiteSpace=wrap;html=1;" vertex="1" parent="1">
          <mxGeometry x="340" y="410" width="120" height="60" as="geometry" />
        </mxCell>
        <mxCell id="Ru7vSebejaAHonJVlTWT-3" value="Pay" style="rounded=0;whiteSpace=wrap;html=1;" vertex="1" parent="1">
          <mxGeometry x="340" y="540" width="120" height="60" as="geometry" />
        </mxCell>
        <mxCell id="Ru7vSebejaAHonJVlTWT-9" style="edgeStyle=orthogonalEdgeStyle;rounded=0;orthogonalLoop=1;jettySize=auto;html=1;entryX=0.5;entryY=0;entryDx=0;entryDy=0;" edge="1" parent="1" source="Ru7vSebejaAHonJVlTWT-4" target="Ru7vSebejaAHonJVlTWT-5">
          <mxGeometry relative="1" as="geometry" />
        </mxCell>
        <mxCell id="Ru7vSebejaAHonJVlTWT-4" value="Go to destination" style="rounded=0;whiteSpace=wrap;html=1;" vertex="1" parent="1">
          <mxGeometry x="340" y="670" width="120" height="60" as="geometry" />
        </mxCell>
        <mxCell id="Ru7vSebejaAHonJVlTWT-5" value="Review the driver" style="rounded=0;whiteSpace=wrap;html=1;" vertex="1" parent="1">
          <mxGeometry x="340" y="790" width="120" height="60" as="geometry" />
        </mxCell>
        <mxCell id="Ru7vSebejaAHonJVlTWT-8" style="edgeStyle=orthogonalEdgeStyle;rounded=0;orthogonalLoop=1;jettySize=auto;html=1;entryX=0.521;entryY=-0.065;entryDx=0;entryDy=0;entryPerimeter=0;" edge="1" parent="1" source="Ru7vSebejaAHonJVlTWT-3" target="Ru7vSebejaAHonJVlTWT-4">
          <mxGeometry relative="1" as="geometry">
            <Array as="points">
              <mxPoint x="403" y="656" />
            </Array>
          </mxGeometry>
        </mxCell>
        <mxCell id="Ru7vSebejaAHonJVlTWT-12" style="edgeStyle=orthogonalEdgeStyle;rounded=0;orthogonalLoop=1;jettySize=auto;html=1;entryX=0.5;entryY=0;entryDx=0;entryDy=0;" edge="1" parent="1" source="Ru7vSebejaAHonJVlTWT-10" target="Ru7vSebejaAHonJVlTWT-1">
          <mxGeometry relative="1" as="geometry" />
        </mxCell>
        <mxCell id="Ru7vSebejaAHonJVlTWT-14" value="" style="edgeStyle=orthogonalEdgeStyle;rounded=0;orthogonalLoop=1;jettySize=auto;html=1;" edge="1" parent="1" source="Ru7vSebejaAHonJVlTWT-10" target="Ru7vSebejaAHonJVlTWT-1">
          <mxGeometry relative="1" as="geometry" />
        </mxCell>
        <mxCell id="Ru7vSebejaAHonJVlTWT-10" value="User" style="shape=umlActor;verticalLabelPosition=bottom;verticalAlign=top;html=1;outlineConnect=0;" vertex="1" parent="1">
          <mxGeometry x="385" y="-10" width="30" height="60" as="geometry" />
        </mxCell>
        <mxCell id="Ru7vSebejaAHonJVlTWT-15" value="Driver" style="shape=umlActor;verticalLabelPosition=bottom;verticalAlign=top;html=1;outlineConnect=0;" vertex="1" parent="1">
          <mxGeometry x="610" y="-10" width="30" height="60" as="geometry" />
        </mxCell>
        <mxCell id="Ru7vSebejaAHonJVlTWT-30" style="edgeStyle=orthogonalEdgeStyle;rounded=0;orthogonalLoop=1;jettySize=auto;html=1;entryX=0.5;entryY=0;entryDx=0;entryDy=0;" edge="1" parent="1" source="Ru7vSebejaAHonJVlTWT-16" target="Ru7vSebejaAHonJVlTWT-24">
          <mxGeometry relative="1" as="geometry" />
        </mxCell>
        <mxCell id="Ru7vSebejaAHonJVlTWT-16" value="Authentication" style="rounded=0;whiteSpace=wrap;html=1;" vertex="1" parent="1">
          <mxGeometry x="570" y="140" width="120" height="60" as="geometry" />
        </mxCell>
        <mxCell id="Ru7vSebejaAHonJVlTWT-17" style="edgeStyle=orthogonalEdgeStyle;rounded=0;orthogonalLoop=1;jettySize=auto;html=1;entryX=0.461;entryY=0.016;entryDx=0;entryDy=0;entryPerimeter=0;" edge="1" parent="1" source="Ru7vSebejaAHonJVlTWT-15" target="Ru7vSebejaAHonJVlTWT-16">
          <mxGeometry relative="1" as="geometry" />
        </mxCell>
        <mxCell id="Ru7vSebejaAHonJVlTWT-20" style="edgeStyle=orthogonalEdgeStyle;rounded=0;orthogonalLoop=1;jettySize=auto;html=1;entryX=0.5;entryY=0;entryDx=0;entryDy=0;" edge="1" parent="1" source="Ru7vSebejaAHonJVlTWT-18" target="Ru7vSebejaAHonJVlTWT-2">
          <mxGeometry relative="1" as="geometry" />
        </mxCell>
        <mxCell id="Ru7vSebejaAHonJVlTWT-18" value="See drivers" style="rounded=0;whiteSpace=wrap;html=1;" vertex="1" parent="1">
          <mxGeometry x="340" y="270" width="120" height="60" as="geometry" />
        </mxCell>
        <mxCell id="Ru7vSebejaAHonJVlTWT-33" style="edgeStyle=orthogonalEdgeStyle;rounded=0;orthogonalLoop=1;jettySize=auto;html=1;entryX=0.5;entryY=0;entryDx=0;entryDy=0;" edge="1" parent="1" source="Ru7vSebejaAHonJVlTWT-21" target="Ru7vSebejaAHonJVlTWT-32">
          <mxGeometry relative="1" as="geometry" />
        </mxCell>
        <mxCell id="Ru7vSebejaAHonJVlTWT-21" value="Accept the ride" style="rounded=0;whiteSpace=wrap;html=1;" vertex="1" parent="1">
          <mxGeometry x="570" y="410" width="120" height="60" as="geometry" />
        </mxCell>
        <mxCell id="Ru7vSebejaAHonJVlTWT-29" style="edgeStyle=orthogonalEdgeStyle;rounded=0;orthogonalLoop=1;jettySize=auto;html=1;entryX=0.5;entryY=0;entryDx=0;entryDy=0;" edge="1" parent="1" source="Ru7vSebejaAHonJVlTWT-24" target="Ru7vSebejaAHonJVlTWT-21">
          <mxGeometry relative="1" as="geometry" />
        </mxCell>
        <mxCell id="Ru7vSebejaAHonJVlTWT-24" value="Get notification" style="rounded=0;whiteSpace=wrap;html=1;" vertex="1" parent="1">
          <mxGeometry x="570" y="270" width="120" height="60" as="geometry" />
        </mxCell>
        <mxCell id="Ru7vSebejaAHonJVlTWT-28" style="edgeStyle=orthogonalEdgeStyle;rounded=0;orthogonalLoop=1;jettySize=auto;html=1;entryX=0;entryY=0.5;entryDx=0;entryDy=0;" edge="1" parent="1" source="Ru7vSebejaAHonJVlTWT-26" target="Ru7vSebejaAHonJVlTWT-24">
          <mxGeometry relative="1" as="geometry">
            <Array as="points">
              <mxPoint x="520" y="300" />
            </Array>
          </mxGeometry>
        </mxCell>
        <mxCell id="Ru7vSebejaAHonJVlTWT-26" value="Notify driver" style="rhombus;whiteSpace=wrap;html=1;" vertex="1" parent="1">
          <mxGeometry x="480" y="320" width="80" height="80" as="geometry" />
        </mxCell>
        <mxCell id="Ru7vSebejaAHonJVlTWT-27" style="edgeStyle=orthogonalEdgeStyle;rounded=0;orthogonalLoop=1;jettySize=auto;html=1;entryX=0.5;entryY=1;entryDx=0;entryDy=0;" edge="1" parent="1" source="Ru7vSebejaAHonJVlTWT-2" target="Ru7vSebejaAHonJVlTWT-26">
          <mxGeometry relative="1" as="geometry">
            <Array as="points">
              <mxPoint x="520" y="440" />
            </Array>
          </mxGeometry>
        </mxCell>
        <mxCell id="Ru7vSebejaAHonJVlTWT-32" value="Drive" style="rhombus;whiteSpace=wrap;html=1;" vertex="1" parent="1">
          <mxGeometry x="590" y="590" width="80" height="80" as="geometry" />
        </mxCell>
        <mxCell id="Ru7vSebejaAHonJVlTWT-34" style="edgeStyle=orthogonalEdgeStyle;rounded=0;orthogonalLoop=1;jettySize=auto;html=1;entryX=1.027;entryY=0.653;entryDx=0;entryDy=0;entryPerimeter=0;" edge="1" parent="1" source="Ru7vSebejaAHonJVlTWT-32" target="Ru7vSebejaAHonJVlTWT-4">
          <mxGeometry relative="1" as="geometry">
            <Array as="points">
              <mxPoint x="630" y="710" />
              <mxPoint x="525" y="710" />
            </Array>
          </mxGeometry>
        </mxCell>
      </root>
    </mxGraphModel>
  </diagram>
  <diagram id="oW_mTpzxA1OfzEd9ej_Y" name="ER">
    <mxGraphModel dx="593" dy="689" grid="1" gridSize="10" guides="1" tooltips="1" connect="1" arrows="1" fold="1" page="1" pageScale="1" pageWidth="850" pageHeight="1100" math="0" shadow="0">
      <root>
        <mxCell id="0" />
        <mxCell id="1" parent="0" />
        <mxCell id="9aHKE4k2MFkU0w61NPKS-1" value="User" style="whiteSpace=wrap;html=1;align=center;" vertex="1" parent="1">
          <mxGeometry x="130" y="210" width="100" height="40" as="geometry" />
        </mxCell>
        <mxCell id="9aHKE4k2MFkU0w61NPKS-2" value="&lt;span style=&quot;border-bottom: 1px dotted&quot;&gt;&lt;u&gt;Email&lt;/u&gt;&lt;/span&gt;" style="ellipse;whiteSpace=wrap;html=1;align=center;" vertex="1" parent="1">
          <mxGeometry x="30" y="170" width="100" height="40" as="geometry" />
        </mxCell>
        <mxCell id="9aHKE4k2MFkU0w61NPKS-3" value="&lt;span style=&quot;border-bottom: 1px dotted&quot;&gt;&lt;u&gt;NameIdentifier&lt;/u&gt;&lt;/span&gt;" style="ellipse;whiteSpace=wrap;html=1;align=center;" vertex="1" parent="1">
          <mxGeometry x="130" y="150" width="100" height="40" as="geometry" />
        </mxCell>
        <mxCell id="9aHKE4k2MFkU0w61NPKS-4" value="UserType" style="ellipse;whiteSpace=wrap;html=1;align=center;" vertex="1" parent="1">
          <mxGeometry x="240" y="170" width="100" height="40" as="geometry" />
        </mxCell>
        <mxCell id="9aHKE4k2MFkU0w61NPKS-5" value="Rating" style="ellipse;whiteSpace=wrap;html=1;align=center;" vertex="1" parent="1">
          <mxGeometry x="20" y="230" width="100" height="40" as="geometry" />
        </mxCell>
        <mxCell id="9aHKE4k2MFkU0w61NPKS-7" value="PictureUrl" style="ellipse;whiteSpace=wrap;html=1;align=center;" vertex="1" parent="1">
          <mxGeometry x="240" y="220" width="100" height="40" as="geometry" />
        </mxCell>
        <mxCell id="9aHKE4k2MFkU0w61NPKS-8" value="Ride" style="whiteSpace=wrap;html=1;align=center;" vertex="1" parent="1">
          <mxGeometry x="160" y="710" width="100" height="40" as="geometry" />
        </mxCell>
        <mxCell id="9aHKE4k2MFkU0w61NPKS-10" value="Id" style="ellipse;whiteSpace=wrap;html=1;align=center;fontStyle=4;" vertex="1" parent="1">
          <mxGeometry x="40" y="680" width="100" height="40" as="geometry" />
        </mxCell>
        <mxCell id="9aHKE4k2MFkU0w61NPKS-11" value="Destination" style="ellipse;whiteSpace=wrap;html=1;align=center;" vertex="1" parent="1">
          <mxGeometry x="190" y="790" width="100" height="40" as="geometry" />
        </mxCell>
        <mxCell id="9aHKE4k2MFkU0w61NPKS-12" value="&lt;u&gt;UserEmail&lt;/u&gt;" style="ellipse;whiteSpace=wrap;html=1;align=center;" vertex="1" parent="1">
          <mxGeometry x="70" y="630" width="100" height="40" as="geometry" />
        </mxCell>
        <mxCell id="9aHKE4k2MFkU0w61NPKS-13" value="DriverEmail" style="ellipse;whiteSpace=wrap;html=1;align=center;" vertex="1" parent="1">
          <mxGeometry x="240" y="630" width="100" height="40" as="geometry" />
        </mxCell>
        <mxCell id="9aHKE4k2MFkU0w61NPKS-14" value="StartPoint" style="ellipse;whiteSpace=wrap;html=1;align=center;" vertex="1" parent="1">
          <mxGeometry x="270" y="750" width="100" height="40" as="geometry" />
        </mxCell>
        <mxCell id="9aHKE4k2MFkU0w61NPKS-15" value="TimeStamp" style="ellipse;whiteSpace=wrap;html=1;align=center;" vertex="1" parent="1">
          <mxGeometry x="300" y="690" width="100" height="40" as="geometry" />
        </mxCell>
        <mxCell id="9aHKE4k2MFkU0w61NPKS-16" value="Status" style="ellipse;whiteSpace=wrap;html=1;align=center;" vertex="1" parent="1">
          <mxGeometry x="60" y="740" width="100" height="40" as="geometry" />
        </mxCell>
        <mxCell id="9aHKE4k2MFkU0w61NPKS-17" value="Book/Take" style="shape=rhombus;perimeter=rhombusPerimeter;whiteSpace=wrap;html=1;align=center;" vertex="1" parent="1">
          <mxGeometry x="150" y="460" width="120" height="60" as="geometry" />
        </mxCell>
        <mxCell id="9aHKE4k2MFkU0w61NPKS-20" style="edgeStyle=orthogonalEdgeStyle;rounded=0;orthogonalLoop=1;jettySize=auto;html=1;entryX=0.639;entryY=1.057;entryDx=0;entryDy=0;entryPerimeter=0;" edge="1" parent="1" source="9aHKE4k2MFkU0w61NPKS-17" target="9aHKE4k2MFkU0w61NPKS-1">
          <mxGeometry relative="1" as="geometry" />
        </mxCell>
        <mxCell id="9aHKE4k2MFkU0w61NPKS-21" style="edgeStyle=orthogonalEdgeStyle;rounded=0;orthogonalLoop=1;jettySize=auto;html=1;entryX=0.579;entryY=-0.086;entryDx=0;entryDy=0;entryPerimeter=0;exitX=0.5;exitY=1;exitDx=0;exitDy=0;" edge="1" parent="1" source="9aHKE4k2MFkU0w61NPKS-17" target="9aHKE4k2MFkU0w61NPKS-8">
          <mxGeometry relative="1" as="geometry">
            <mxPoint x="200" y="620" as="sourcePoint" />
          </mxGeometry>
        </mxCell>
        <mxCell id="9aHKE4k2MFkU0w61NPKS-22" value="1" style="text;html=1;align=center;verticalAlign=middle;resizable=0;points=[];autosize=1;strokeColor=none;fillColor=none;" vertex="1" parent="1">
          <mxGeometry x="165" y="248" width="30" height="30" as="geometry" />
        </mxCell>
        <mxCell id="9aHKE4k2MFkU0w61NPKS-23" value="M" style="text;html=1;align=center;verticalAlign=middle;resizable=0;points=[];autosize=1;strokeColor=none;fillColor=none;" vertex="1" parent="1">
          <mxGeometry x="180" y="680" width="30" height="30" as="geometry" />
        </mxCell>
        <mxCell id="9aHKE4k2MFkU0w61NPKS-24" value="Cost" style="ellipse;whiteSpace=wrap;html=1;align=center;" vertex="1" parent="1">
          <mxGeometry x="85" y="780" width="100" height="40" as="geometry" />
        </mxCell>
        <mxCell id="9aHKE4k2MFkU0w61NPKS-26" value="PhoneNumber" style="ellipse;whiteSpace=wrap;html=1;align=center;" vertex="1" parent="1">
          <mxGeometry x="60" y="278" width="100" height="40" as="geometry" />
        </mxCell>
      </root>
    </mxGraphModel>
  </diagram>
  <diagram id="MjlcBUjyhmpaebb84u9s" name="TehnicalApplicationBussinessFlow">
    <mxGraphModel dx="4707" dy="3093" grid="1" gridSize="10" guides="1" tooltips="1" connect="1" arrows="1" fold="1" page="1" pageScale="1" pageWidth="850" pageHeight="1100" math="0" shadow="0">
      <root>
        <mxCell id="0" />
        <mxCell id="1" parent="0" />
        <mxCell id="B-qFe6VD0-c9LWoHqvJA-1" value="" style="rounded=0;whiteSpace=wrap;html=1;" parent="1" vertex="1">
          <mxGeometry x="50" y="140" width="670" height="1320" as="geometry" />
        </mxCell>
        <mxCell id="B-qFe6VD0-c9LWoHqvJA-2" value="FastRide-BE" style="text;html=1;align=center;verticalAlign=middle;resizable=0;points=[];autosize=1;strokeColor=none;fillColor=none;" parent="1" vertex="1">
          <mxGeometry x="50" y="110" width="90" height="30" as="geometry" />
        </mxCell>
        <mxCell id="B-qFe6VD0-c9LWoHqvJA-3" value="" style="rounded=0;whiteSpace=wrap;html=1;" parent="1" vertex="1">
          <mxGeometry x="1670" y="-430" width="1190" height="1890" as="geometry" />
        </mxCell>
        <mxCell id="B-qFe6VD0-c9LWoHqvJA-4" value="FastRide-FE" style="text;html=1;align=center;verticalAlign=middle;resizable=0;points=[];autosize=1;strokeColor=none;fillColor=none;" parent="1" vertex="1">
          <mxGeometry x="1670" y="-460" width="90" height="30" as="geometry" />
        </mxCell>
        <mxCell id="B-qFe6VD0-c9LWoHqvJA-5" value="" style="rounded=0;whiteSpace=wrap;html=1;" parent="1" vertex="1">
          <mxGeometry x="1780" y="630" width="1010" height="590" as="geometry" />
        </mxCell>
        <mxCell id="B-qFe6VD0-c9LWoHqvJA-6" value="UserId=&quot;first-user&quot;" style="text;html=1;align=center;verticalAlign=middle;resizable=0;points=[];autosize=1;strokeColor=none;fillColor=none;" parent="1" vertex="1">
          <mxGeometry x="1780" y="600" width="120" height="30" as="geometry" />
        </mxCell>
        <mxCell id="B-qFe6VD0-c9LWoHqvJA-9" value="...." style="rounded=0;whiteSpace=wrap;html=1;" parent="1" vertex="1">
          <mxGeometry x="1770" y="1270" width="1010" height="130" as="geometry" />
        </mxCell>
        <mxCell id="B-qFe6VD0-c9LWoHqvJA-10" value="UserId=&quot;second-user&quot;" style="text;html=1;align=center;verticalAlign=middle;resizable=0;points=[];autosize=1;strokeColor=none;fillColor=none;" parent="1" vertex="1">
          <mxGeometry x="1770" y="1240" width="140" height="30" as="geometry" />
        </mxCell>
        <mxCell id="B-qFe6VD0-c9LWoHqvJA-11" value="" style="rounded=0;whiteSpace=wrap;html=1;" parent="1" vertex="1">
          <mxGeometry x="1785" y="-140" width="1010" height="590" as="geometry" />
        </mxCell>
        <mxCell id="B-qFe6VD0-c9LWoHqvJA-12" value="UserId=&quot;first-driver&quot;" style="text;html=1;align=center;verticalAlign=middle;resizable=0;points=[];autosize=1;strokeColor=none;fillColor=none;" parent="1" vertex="1">
          <mxGeometry x="1780" y="-170" width="130" height="30" as="geometry" />
        </mxCell>
        <mxCell id="B-qFe6VD0-c9LWoHqvJA-13" value="...." style="rounded=0;whiteSpace=wrap;html=1;" parent="1" vertex="1">
          <mxGeometry x="1780" y="-390" width="1010" height="160" as="geometry" />
        </mxCell>
        <mxCell id="B-qFe6VD0-c9LWoHqvJA-14" value="UserId=&quot;second-driver&quot;" style="text;html=1;align=center;verticalAlign=middle;resizable=0;points=[];autosize=1;strokeColor=none;fillColor=none;" parent="1" vertex="1">
          <mxGeometry x="1780" y="-420" width="150" height="30" as="geometry" />
        </mxCell>
        <mxCell id="B-qFe6VD0-c9LWoHqvJA-49" style="edgeStyle=orthogonalEdgeStyle;rounded=0;orthogonalLoop=1;jettySize=auto;html=1;entryX=1;entryY=0.25;entryDx=0;entryDy=0;" parent="1" source="B-qFe6VD0-c9LWoHqvJA-15" target="B-qFe6VD0-c9LWoHqvJA-48" edge="1">
          <mxGeometry relative="1" as="geometry">
            <Array as="points">
              <mxPoint x="1180" y="120" />
              <mxPoint x="350" y="120" />
              <mxPoint x="350" y="395" />
            </Array>
          </mxGeometry>
        </mxCell>
        <mxCell id="B-qFe6VD0-c9LWoHqvJA-59" style="edgeStyle=orthogonalEdgeStyle;rounded=0;orthogonalLoop=1;jettySize=auto;html=1;entryX=0.5;entryY=1;entryDx=0;entryDy=0;" parent="1" source="B-qFe6VD0-c9LWoHqvJA-15" target="B-qFe6VD0-c9LWoHqvJA-57" edge="1">
          <mxGeometry relative="1" as="geometry">
            <Array as="points">
              <mxPoint x="1195" y="910" />
              <mxPoint x="2670" y="910" />
            </Array>
          </mxGeometry>
        </mxCell>
        <mxCell id="B-qFe6VD0-c9LWoHqvJA-84" style="edgeStyle=orthogonalEdgeStyle;rounded=0;orthogonalLoop=1;jettySize=auto;html=1;entryX=1;entryY=0.5;entryDx=0;entryDy=0;" parent="1" source="B-qFe6VD0-c9LWoHqvJA-15" target="B-qFe6VD0-c9LWoHqvJA-83" edge="1">
          <mxGeometry relative="1" as="geometry">
            <Array as="points">
              <mxPoint x="1090" y="465" />
              <mxPoint x="1090" y="1350" />
            </Array>
          </mxGeometry>
        </mxCell>
        <mxCell id="B-qFe6VD0-c9LWoHqvJA-111" style="edgeStyle=orthogonalEdgeStyle;rounded=0;orthogonalLoop=1;jettySize=auto;html=1;entryX=1;entryY=0.75;entryDx=0;entryDy=0;" parent="1" source="B-qFe6VD0-c9LWoHqvJA-15" target="B-qFe6VD0-c9LWoHqvJA-107" edge="1">
          <mxGeometry relative="1" as="geometry">
            <Array as="points">
              <mxPoint x="1150" y="1250" />
              <mxPoint x="180" y="1250" />
            </Array>
          </mxGeometry>
        </mxCell>
        <mxCell id="B-qFe6VD0-c9LWoHqvJA-118" style="edgeStyle=orthogonalEdgeStyle;rounded=0;orthogonalLoop=1;jettySize=auto;html=1;entryX=0.5;entryY=0;entryDx=0;entryDy=0;" parent="1" source="B-qFe6VD0-c9LWoHqvJA-15" target="B-qFe6VD0-c9LWoHqvJA-79" edge="1">
          <mxGeometry relative="1" as="geometry">
            <Array as="points">
              <mxPoint x="1195" y="900" />
              <mxPoint x="1975" y="900" />
            </Array>
          </mxGeometry>
        </mxCell>
        <mxCell id="-72hbJV1YspDoW3BRcoS-5" style="edgeStyle=orthogonalEdgeStyle;rounded=0;orthogonalLoop=1;jettySize=auto;html=1;entryX=0.75;entryY=0;entryDx=0;entryDy=0;" parent="1" source="B-qFe6VD0-c9LWoHqvJA-15" target="-72hbJV1YspDoW3BRcoS-2" edge="1">
          <mxGeometry relative="1" as="geometry">
            <Array as="points">
              <mxPoint x="2970" y="490" />
              <mxPoint x="2970" y="930" />
              <mxPoint x="2553" y="930" />
            </Array>
          </mxGeometry>
        </mxCell>
        <mxCell id="-72hbJV1YspDoW3BRcoS-10" style="edgeStyle=orthogonalEdgeStyle;rounded=0;orthogonalLoop=1;jettySize=auto;html=1;" parent="1" source="B-qFe6VD0-c9LWoHqvJA-15" target="-72hbJV1YspDoW3BRcoS-7" edge="1">
          <mxGeometry relative="1" as="geometry">
            <Array as="points">
              <mxPoint x="3040" y="500" />
              <mxPoint x="3040" y="900" />
              <mxPoint x="2390" y="900" />
            </Array>
          </mxGeometry>
        </mxCell>
        <mxCell id="-72hbJV1YspDoW3BRcoS-11" style="edgeStyle=orthogonalEdgeStyle;rounded=0;orthogonalLoop=1;jettySize=auto;html=1;entryX=0.5;entryY=0;entryDx=0;entryDy=0;" parent="1" source="B-qFe6VD0-c9LWoHqvJA-15" target="B-qFe6VD0-c9LWoHqvJA-68" edge="1">
          <mxGeometry relative="1" as="geometry">
            <Array as="points">
              <mxPoint x="3000" y="465" />
              <mxPoint x="3000" y="930" />
              <mxPoint x="2250" y="930" />
            </Array>
          </mxGeometry>
        </mxCell>
        <mxCell id="-72hbJV1YspDoW3BRcoS-12" style="edgeStyle=orthogonalEdgeStyle;rounded=0;orthogonalLoop=1;jettySize=auto;html=1;entryX=0.5;entryY=0;entryDx=0;entryDy=0;" parent="1" source="B-qFe6VD0-c9LWoHqvJA-15" target="B-qFe6VD0-c9LWoHqvJA-75" edge="1">
          <mxGeometry relative="1" as="geometry">
            <Array as="points">
              <mxPoint x="3060" y="465" />
              <mxPoint x="3060" y="900" />
              <mxPoint x="2110" y="900" />
            </Array>
          </mxGeometry>
        </mxCell>
        <mxCell id="-72hbJV1YspDoW3BRcoS-24" style="edgeStyle=orthogonalEdgeStyle;rounded=0;orthogonalLoop=1;jettySize=auto;html=1;entryX=0;entryY=0.5;entryDx=0;entryDy=0;" parent="1" source="B-qFe6VD0-c9LWoHqvJA-15" target="B-qFe6VD0-c9LWoHqvJA-25" edge="1">
          <mxGeometry relative="1" as="geometry">
            <Array as="points">
              <mxPoint x="1540" y="440" />
              <mxPoint x="1540" y="170" />
            </Array>
          </mxGeometry>
        </mxCell>
        <mxCell id="B-qFe6VD0-c9LWoHqvJA-15" value="" style="image;sketch=0;aspect=fixed;html=1;points=[];align=center;fontSize=12;image=img/lib/mscae/SignalR.svg;" parent="1" vertex="1">
          <mxGeometry x="1130" y="400" width="130" height="130" as="geometry" />
        </mxCell>
        <mxCell id="B-qFe6VD0-c9LWoHqvJA-16" value="SignalR" style="text;html=1;align=center;verticalAlign=middle;resizable=0;points=[];autosize=1;strokeColor=none;fillColor=none;" parent="1" vertex="1">
          <mxGeometry x="1160" y="360" width="70" height="30" as="geometry" />
        </mxCell>
        <mxCell id="B-qFe6VD0-c9LWoHqvJA-17" value="(Background-service) Sender&lt;div&gt;Sent geolocation to group&lt;br&gt;p: lat, long, groupName=&lt;i style=&quot;background-color: initial;&quot;&gt;{country}-{county}-{city}&lt;/i&gt;&lt;/div&gt;" style="rounded=0;whiteSpace=wrap;html=1;fillColor=#CCCC00;" parent="1" vertex="1">
          <mxGeometry x="1830" y="-10" width="140" height="120" as="geometry" />
        </mxCell>
        <mxCell id="B-qFe6VD0-c9LWoHqvJA-18" value="Login Sender -&amp;gt; join group&lt;i&gt;&lt;br&gt;p: userId, groupName=&lt;/i&gt;&lt;i&gt;{country}-{county}-{city}&lt;/i&gt;" style="rounded=0;whiteSpace=wrap;html=1;fillColor=#1D0202;" parent="1" vertex="1">
          <mxGeometry x="1860" y="-120" width="130" height="60" as="geometry" />
        </mxCell>
        <mxCell id="B-qFe6VD0-c9LWoHqvJA-20" value="JoinUserGroupTrigger&lt;div&gt;P: groupName, UserId&lt;/div&gt;" style="rounded=0;whiteSpace=wrap;html=1;fillColor=#1D0101;" parent="1" vertex="1">
          <mxGeometry x="110" y="180" width="130" height="70" as="geometry" />
        </mxCell>
        <mxCell id="B-qFe6VD0-c9LWoHqvJA-23" value="GeolocationUpdateTrigger&lt;div&gt;-send to payload.group payload.connectionId (if exists)&lt;/div&gt;&lt;div&gt;p: payload&lt;/div&gt;" style="rounded=0;whiteSpace=wrap;html=1;fillColor=#CCCC00;" parent="1" vertex="1">
          <mxGeometry x="95" y="270" width="160" height="80" as="geometry" />
        </mxCell>
        <mxCell id="-72hbJV1YspDoW3BRcoS-26" style="edgeStyle=orthogonalEdgeStyle;rounded=0;orthogonalLoop=1;jettySize=auto;html=1;entryX=0;entryY=0.5;entryDx=0;entryDy=0;" parent="1" source="B-qFe6VD0-c9LWoHqvJA-25" target="-72hbJV1YspDoW3BRcoS-25" edge="1">
          <mxGeometry relative="1" as="geometry" />
        </mxCell>
        <mxCell id="B-qFe6VD0-c9LWoHqvJA-25" value="Listener&lt;br&gt;AvailableRidesListener&lt;div&gt;&lt;br&gt;&lt;/div&gt;" style="rounded=0;whiteSpace=wrap;html=1;fillColor=#00FFFF;" parent="1" vertex="1">
          <mxGeometry x="1820" y="140" width="140" height="60" as="geometry" />
        </mxCell>
        <mxCell id="B-qFe6VD0-c9LWoHqvJA-26" value="Login Sender -&amp;gt; join group&lt;i&gt;&lt;br&gt;p: userId, groupName={country}-{county}-{city}&lt;/i&gt;" style="rounded=0;whiteSpace=wrap;html=1;fillColor=#1D0202;" parent="1" vertex="1">
          <mxGeometry x="1800" y="660" width="130" height="60" as="geometry" />
        </mxCell>
        <mxCell id="-72hbJV1YspDoW3BRcoS-1" style="edgeStyle=orthogonalEdgeStyle;rounded=0;orthogonalLoop=1;jettySize=auto;html=1;entryX=0;entryY=0.5;entryDx=0;entryDy=0;" parent="1" source="B-qFe6VD0-c9LWoHqvJA-28" target="B-qFe6VD0-c9LWoHqvJA-29" edge="1">
          <mxGeometry relative="1" as="geometry" />
        </mxCell>
        <mxCell id="B-qFe6VD0-c9LWoHqvJA-28" value="Select a Place" style="rounded=0;whiteSpace=wrap;html=1;" parent="1" vertex="1">
          <mxGeometry x="1805" y="770" width="120" height="60" as="geometry" />
        </mxCell>
        <mxCell id="B-qFe6VD0-c9LWoHqvJA-31" style="edgeStyle=orthogonalEdgeStyle;rounded=0;orthogonalLoop=1;jettySize=auto;html=1;exitX=0.5;exitY=1;exitDx=0;exitDy=0;entryX=0.5;entryY=1;entryDx=0;entryDy=0;" parent="1" source="B-qFe6VD0-c9LWoHqvJA-29" target="B-qFe6VD0-c9LWoHqvJA-32" edge="1">
          <mxGeometry relative="1" as="geometry">
            <mxPoint x="129.9965217391307" y="780" as="targetPoint" />
            <mxPoint x="2000.04" y="860.04347826087" as="sourcePoint" />
            <Array as="points">
              <mxPoint x="2040" y="830" />
              <mxPoint x="2040" y="1480" />
              <mxPoint x="120" y="1480" />
            </Array>
          </mxGeometry>
        </mxCell>
        <mxCell id="B-qFe6VD0-c9LWoHqvJA-40" value="" style="edgeStyle=orthogonalEdgeStyle;rounded=0;orthogonalLoop=1;jettySize=auto;html=1;" parent="1" source="B-qFe6VD0-c9LWoHqvJA-41" target="B-qFe6VD0-c9LWoHqvJA-39" edge="1">
          <mxGeometry relative="1" as="geometry" />
        </mxCell>
        <mxCell id="B-qFe6VD0-c9LWoHqvJA-45" value="yes" style="edgeLabel;html=1;align=center;verticalAlign=middle;resizable=0;points=[];" parent="B-qFe6VD0-c9LWoHqvJA-40" vertex="1" connectable="0">
          <mxGeometry x="-0.2152" y="-1" relative="1" as="geometry">
            <mxPoint y="6" as="offset" />
          </mxGeometry>
        </mxCell>
        <mxCell id="B-qFe6VD0-c9LWoHqvJA-29" value="CalculatePrice&lt;div&gt;(destLat,destLong,&lt;/div&gt;&lt;div&gt;userLat,userLat)&lt;/div&gt;" style="rounded=0;whiteSpace=wrap;html=1;" parent="1" vertex="1">
          <mxGeometry x="2000" y="770" width="130" height="60" as="geometry" />
        </mxCell>
        <mxCell id="B-qFe6VD0-c9LWoHqvJA-32" value="CalculatePrice" style="rounded=0;whiteSpace=wrap;html=1;" parent="1" vertex="1">
          <mxGeometry x="59.99894736842104" y="1390" width="120" height="60" as="geometry" />
        </mxCell>
        <mxCell id="B-qFe6VD0-c9LWoHqvJA-38" value="http request" style="text;html=1;align=center;verticalAlign=middle;resizable=0;points=[];autosize=1;strokeColor=none;fillColor=none;" parent="1" vertex="1">
          <mxGeometry x="1070" y="1450" width="90" height="30" as="geometry" />
        </mxCell>
        <mxCell id="B-qFe6VD0-c9LWoHqvJA-58" value="" style="edgeStyle=orthogonalEdgeStyle;rounded=0;orthogonalLoop=1;jettySize=auto;html=1;entryX=0;entryY=0.25;entryDx=0;entryDy=0;" parent="1" source="B-qFe6VD0-c9LWoHqvJA-39" target="B-qFe6VD0-c9LWoHqvJA-57" edge="1">
          <mxGeometry relative="1" as="geometry" />
        </mxCell>
        <mxCell id="B-qFe6VD0-c9LWoHqvJA-39" value="StartRideSender-Sender&lt;div&gt;p: user(id,long,lat)&lt;/div&gt;&lt;div&gt;destLong, destLat&lt;/div&gt;" style="whiteSpace=wrap;html=1;rounded=0;fillColor=#00FFFF;" parent="1" vertex="1">
          <mxGeometry x="2370" y="760" width="170" height="130" as="geometry" />
        </mxCell>
        <mxCell id="B-qFe6VD0-c9LWoHqvJA-42" value="" style="edgeStyle=orthogonalEdgeStyle;rounded=0;orthogonalLoop=1;jettySize=auto;html=1;" parent="1" source="B-qFe6VD0-c9LWoHqvJA-29" target="B-qFe6VD0-c9LWoHqvJA-41" edge="1">
          <mxGeometry relative="1" as="geometry">
            <mxPoint x="2450" y="800" as="sourcePoint" />
            <mxPoint x="2600" y="800" as="targetPoint" />
          </mxGeometry>
        </mxCell>
        <mxCell id="B-qFe6VD0-c9LWoHqvJA-43" style="edgeStyle=orthogonalEdgeStyle;rounded=0;orthogonalLoop=1;jettySize=auto;html=1;entryX=0.75;entryY=0;entryDx=0;entryDy=0;" parent="1" source="B-qFe6VD0-c9LWoHqvJA-41" target="B-qFe6VD0-c9LWoHqvJA-28" edge="1">
          <mxGeometry relative="1" as="geometry">
            <Array as="points">
              <mxPoint x="2250" y="730" />
              <mxPoint x="1895" y="730" />
            </Array>
          </mxGeometry>
        </mxCell>
        <mxCell id="B-qFe6VD0-c9LWoHqvJA-44" value="no" style="edgeLabel;html=1;align=center;verticalAlign=middle;resizable=0;points=[];" parent="B-qFe6VD0-c9LWoHqvJA-43" vertex="1" connectable="0">
          <mxGeometry x="-0.7488" y="1" relative="1" as="geometry">
            <mxPoint x="2" y="-1" as="offset" />
          </mxGeometry>
        </mxCell>
        <mxCell id="B-qFe6VD0-c9LWoHqvJA-41" value="if-confirm-ride" style="rhombus;whiteSpace=wrap;html=1;" parent="1" vertex="1">
          <mxGeometry x="2205" y="760" width="90" height="80" as="geometry" />
        </mxCell>
        <mxCell id="B-qFe6VD0-c9LWoHqvJA-47" style="edgeStyle=orthogonalEdgeStyle;rounded=0;orthogonalLoop=1;jettySize=auto;html=1;entryX=1.008;entryY=0.86;entryDx=0;entryDy=0;entryPerimeter=0;" parent="1" source="B-qFe6VD0-c9LWoHqvJA-39" target="B-qFe6VD0-c9LWoHqvJA-15" edge="1">
          <mxGeometry relative="1" as="geometry">
            <Array as="points">
              <mxPoint x="2660" y="790" />
              <mxPoint x="2660" y="512" />
            </Array>
          </mxGeometry>
        </mxCell>
        <mxCell id="B-qFe6VD0-c9LWoHqvJA-48" value="StartRide listener&lt;br&gt;sender" style="rounded=0;whiteSpace=wrap;html=1;strokeColor=#66B2FF;fillColor=#00FFFF;" parent="1" vertex="1">
          <mxGeometry x="100" y="380" width="120" height="60" as="geometry" />
        </mxCell>
        <mxCell id="B-qFe6VD0-c9LWoHqvJA-53" style="edgeStyle=orthogonalEdgeStyle;rounded=0;orthogonalLoop=1;jettySize=auto;html=1;entryX=0;entryY=0.25;entryDx=0;entryDy=0;" parent="1" source="B-qFe6VD0-c9LWoHqvJA-50" target="B-qFe6VD0-c9LWoHqvJA-52" edge="1">
          <mxGeometry relative="1" as="geometry" />
        </mxCell>
        <mxCell id="B-qFe6VD0-c9LWoHqvJA-50" value="start ride orchestration" style="rounded=0;whiteSpace=wrap;html=1;" parent="1" vertex="1">
          <mxGeometry x="280" y="420" width="120" height="60" as="geometry" />
        </mxCell>
        <mxCell id="B-qFe6VD0-c9LWoHqvJA-51" style="edgeStyle=orthogonalEdgeStyle;rounded=0;orthogonalLoop=1;jettySize=auto;html=1;entryX=0.008;entryY=0.383;entryDx=0;entryDy=0;entryPerimeter=0;" parent="1" source="B-qFe6VD0-c9LWoHqvJA-48" target="B-qFe6VD0-c9LWoHqvJA-50" edge="1">
          <mxGeometry relative="1" as="geometry" />
        </mxCell>
        <mxCell id="B-qFe6VD0-c9LWoHqvJA-56" style="edgeStyle=orthogonalEdgeStyle;rounded=0;orthogonalLoop=1;jettySize=auto;html=1;" parent="1" source="B-qFe6VD0-c9LWoHqvJA-52" target="B-qFe6VD0-c9LWoHqvJA-15" edge="1">
          <mxGeometry relative="1" as="geometry">
            <Array as="points">
              <mxPoint x="1195" y="370" />
            </Array>
          </mxGeometry>
        </mxCell>
        <mxCell id="-72hbJV1YspDoW3BRcoS-14" style="edgeStyle=orthogonalEdgeStyle;rounded=0;orthogonalLoop=1;jettySize=auto;html=1;" parent="1" source="B-qFe6VD0-c9LWoHqvJA-52" target="-72hbJV1YspDoW3BRcoS-13" edge="1">
          <mxGeometry relative="1" as="geometry" />
        </mxCell>
        <mxCell id="B-qFe6VD0-c9LWoHqvJA-52" value="create paymentIntent&lt;div&gt;sender&lt;/div&gt;" style="rounded=0;whiteSpace=wrap;html=1;fillColor=#E5CCFF;" parent="1" vertex="1">
          <mxGeometry x="460" y="345" width="120" height="60" as="geometry" />
        </mxCell>
        <mxCell id="B-qFe6VD0-c9LWoHqvJA-73" style="edgeStyle=orthogonalEdgeStyle;rounded=0;orthogonalLoop=1;jettySize=auto;html=1;entryX=0.5;entryY=0;entryDx=0;entryDy=0;" parent="1" source="B-qFe6VD0-c9LWoHqvJA-54" target="B-qFe6VD0-c9LWoHqvJA-72" edge="1">
          <mxGeometry relative="1" as="geometry" />
        </mxCell>
        <mxCell id="-72hbJV1YspDoW3BRcoS-20" style="edgeStyle=orthogonalEdgeStyle;rounded=0;orthogonalLoop=1;jettySize=auto;html=1;entryX=1;entryY=0.75;entryDx=0;entryDy=0;" parent="1" source="B-qFe6VD0-c9LWoHqvJA-54" target="B-qFe6VD0-c9LWoHqvJA-119" edge="1">
          <mxGeometry relative="1" as="geometry">
            <Array as="points">
              <mxPoint x="630" y="640" />
              <mxPoint x="630" y="575" />
            </Array>
          </mxGeometry>
        </mxCell>
        <mxCell id="-72hbJV1YspDoW3BRcoS-21" value="if driver rejected" style="edgeLabel;html=1;align=center;verticalAlign=middle;resizable=0;points=[];" parent="-72hbJV1YspDoW3BRcoS-20" vertex="1" connectable="0">
          <mxGeometry x="-0.0779" y="1" relative="1" as="geometry">
            <mxPoint as="offset" />
          </mxGeometry>
        </mxCell>
        <mxCell id="B-qFe6VD0-c9LWoHqvJA-54" value="waitForNextEvent&lt;br&gt;(driver confirm)" style="rounded=0;whiteSpace=wrap;html=1;" parent="1" vertex="1">
          <mxGeometry x="460" y="610" width="120" height="60" as="geometry" />
        </mxCell>
        <mxCell id="B-qFe6VD0-c9LWoHqvJA-64" value="" style="edgeStyle=orthogonalEdgeStyle;rounded=0;orthogonalLoop=1;jettySize=auto;html=1;" parent="1" source="B-qFe6VD0-c9LWoHqvJA-57" target="B-qFe6VD0-c9LWoHqvJA-63" edge="1">
          <mxGeometry relative="1" as="geometry">
            <Array as="points">
              <mxPoint x="2700" y="970" />
            </Array>
          </mxGeometry>
        </mxCell>
        <mxCell id="B-qFe6VD0-c9LWoHqvJA-57" value="payment-listener&lt;div&gt;go to payment&lt;/div&gt;" style="whiteSpace=wrap;html=1;fillColor=#E5CCFF;rounded=0;" parent="1" vertex="1">
          <mxGeometry x="2610" y="820" width="120" height="60" as="geometry" />
        </mxCell>
        <mxCell id="B-qFe6VD0-c9LWoHqvJA-61" style="edgeStyle=orthogonalEdgeStyle;rounded=0;orthogonalLoop=1;jettySize=auto;html=1;entryX=0;entryY=0.5;entryDx=0;entryDy=0;" parent="1" source="B-qFe6VD0-c9LWoHqvJA-60" target="-72hbJV1YspDoW3BRcoS-13" edge="1">
          <mxGeometry relative="1" as="geometry">
            <Array as="points">
              <mxPoint x="330" y="610" />
              <mxPoint x="330" y="500" />
              <mxPoint x="440" y="500" />
              <mxPoint x="440" y="465" />
            </Array>
          </mxGeometry>
        </mxCell>
        <mxCell id="B-qFe6VD0-c9LWoHqvJA-60" value="payment listener" style="rounded=0;whiteSpace=wrap;html=1;fillColor=#3399FF;" parent="1" vertex="1">
          <mxGeometry x="110" y="580" width="120" height="60" as="geometry" />
        </mxCell>
        <mxCell id="-72hbJV1YspDoW3BRcoS-3" style="edgeStyle=orthogonalEdgeStyle;rounded=0;orthogonalLoop=1;jettySize=auto;html=1;entryX=1;entryY=0.5;entryDx=0;entryDy=0;" parent="1" source="B-qFe6VD0-c9LWoHqvJA-63" target="-72hbJV1YspDoW3BRcoS-2" edge="1">
          <mxGeometry relative="1" as="geometry" />
        </mxCell>
        <mxCell id="B-qFe6VD0-c9LWoHqvJA-63" value="send payment status&lt;div&gt;sender&lt;/div&gt;" style="whiteSpace=wrap;html=1;fillColor=#3399FF;rounded=0;" parent="1" vertex="1">
          <mxGeometry x="2620" y="950" width="120" height="60" as="geometry" />
        </mxCell>
        <mxCell id="B-qFe6VD0-c9LWoHqvJA-65" style="edgeStyle=orthogonalEdgeStyle;rounded=0;orthogonalLoop=1;jettySize=auto;html=1;entryX=0.846;entryY=1.015;entryDx=0;entryDy=0;entryPerimeter=0;exitX=0.25;exitY=0;exitDx=0;exitDy=0;" parent="1" source="B-qFe6VD0-c9LWoHqvJA-63" target="B-qFe6VD0-c9LWoHqvJA-15" edge="1">
          <mxGeometry relative="1" as="geometry">
            <Array as="points">
              <mxPoint x="2580" y="920" />
              <mxPoint x="1240" y="920" />
            </Array>
          </mxGeometry>
        </mxCell>
        <mxCell id="B-qFe6VD0-c9LWoHqvJA-76" value="" style="edgeStyle=orthogonalEdgeStyle;rounded=0;orthogonalLoop=1;jettySize=auto;html=1;" parent="1" source="B-qFe6VD0-c9LWoHqvJA-68" target="B-qFe6VD0-c9LWoHqvJA-75" edge="1">
          <mxGeometry relative="1" as="geometry" />
        </mxCell>
        <mxCell id="B-qFe6VD0-c9LWoHqvJA-68" value="driver comes&lt;br&gt;listener" style="whiteSpace=wrap;html=1;fillColor=#CCCC00;rounded=0;" parent="1" vertex="1">
          <mxGeometry x="2190" y="940" width="120" height="60" as="geometry" />
        </mxCell>
        <mxCell id="B-qFe6VD0-c9LWoHqvJA-70" value="finish" style="whiteSpace=wrap;html=1;fillColor=#000000;rounded=0;" parent="1" vertex="1">
          <mxGeometry x="2190" y="1060" width="120" height="60" as="geometry" />
        </mxCell>
        <mxCell id="B-qFe6VD0-c9LWoHqvJA-92" style="edgeStyle=orthogonalEdgeStyle;rounded=0;orthogonalLoop=1;jettySize=auto;html=1;" parent="1" source="B-qFe6VD0-c9LWoHqvJA-72" target="B-qFe6VD0-c9LWoHqvJA-91" edge="1">
          <mxGeometry relative="1" as="geometry" />
        </mxCell>
        <mxCell id="B-qFe6VD0-c9LWoHqvJA-72" value="waitForNextEvent&lt;br&gt;Driver waits for user" style="rounded=0;whiteSpace=wrap;html=1;" parent="1" vertex="1">
          <mxGeometry x="460" y="700" width="120" height="60" as="geometry" />
        </mxCell>
        <mxCell id="B-qFe6VD0-c9LWoHqvJA-93" style="edgeStyle=orthogonalEdgeStyle;rounded=0;orthogonalLoop=1;jettySize=auto;html=1;" parent="1" source="B-qFe6VD0-c9LWoHqvJA-74" target="B-qFe6VD0-c9LWoHqvJA-1" edge="1">
          <mxGeometry relative="1" as="geometry">
            <Array as="points">
              <mxPoint x="170" y="730" />
              <mxPoint x="260" y="730" />
              <mxPoint x="260" y="120" />
              <mxPoint x="385" y="120" />
            </Array>
          </mxGeometry>
        </mxCell>
        <mxCell id="-72hbJV1YspDoW3BRcoS-45" style="edgeStyle=orthogonalEdgeStyle;rounded=0;orthogonalLoop=1;jettySize=auto;html=1;entryX=0;entryY=0.5;entryDx=0;entryDy=0;" parent="1" source="B-qFe6VD0-c9LWoHqvJA-74" target="B-qFe6VD0-c9LWoHqvJA-72" edge="1">
          <mxGeometry relative="1" as="geometry" />
        </mxCell>
        <mxCell id="B-qFe6VD0-c9LWoHqvJA-74" value="driver waits for user" style="rounded=0;whiteSpace=wrap;html=1;fillColor=#FF0080;" parent="1" vertex="1">
          <mxGeometry x="110" y="650" width="120" height="60" as="geometry" />
        </mxCell>
        <mxCell id="B-qFe6VD0-c9LWoHqvJA-80" value="" style="edgeStyle=orthogonalEdgeStyle;rounded=0;orthogonalLoop=1;jettySize=auto;html=1;" parent="1" source="B-qFe6VD0-c9LWoHqvJA-75" target="B-qFe6VD0-c9LWoHqvJA-79" edge="1">
          <mxGeometry relative="1" as="geometry" />
        </mxCell>
        <mxCell id="B-qFe6VD0-c9LWoHqvJA-75" value="driver waits listener" style="whiteSpace=wrap;html=1;fillColor=#FF0080;rounded=0;" parent="1" vertex="1">
          <mxGeometry x="2050" y="940" width="120" height="60" as="geometry" />
        </mxCell>
        <mxCell id="B-qFe6VD0-c9LWoHqvJA-102" style="edgeStyle=orthogonalEdgeStyle;rounded=0;orthogonalLoop=1;jettySize=auto;html=1;entryX=0;entryY=0.5;entryDx=0;entryDy=0;" parent="1" source="B-qFe6VD0-c9LWoHqvJA-77" target="B-qFe6VD0-c9LWoHqvJA-70" edge="1">
          <mxGeometry relative="1" as="geometry">
            <Array as="points">
              <mxPoint x="1890" y="1090" />
            </Array>
          </mxGeometry>
        </mxCell>
        <mxCell id="B-qFe6VD0-c9LWoHqvJA-77" value="drive" style="whiteSpace=wrap;html=1;fillColor=#000000;rounded=0;" parent="1" vertex="1">
          <mxGeometry x="1785" y="940" width="120" height="60" as="geometry" />
        </mxCell>
        <mxCell id="B-qFe6VD0-c9LWoHqvJA-100" style="edgeStyle=orthogonalEdgeStyle;rounded=0;orthogonalLoop=1;jettySize=auto;html=1;" parent="1" source="B-qFe6VD0-c9LWoHqvJA-79" target="B-qFe6VD0-c9LWoHqvJA-77" edge="1">
          <mxGeometry relative="1" as="geometry" />
        </mxCell>
        <mxCell id="B-qFe6VD0-c9LWoHqvJA-117" style="edgeStyle=orthogonalEdgeStyle;rounded=0;orthogonalLoop=1;jettySize=auto;html=1;entryX=0.5;entryY=0;entryDx=0;entryDy=0;" parent="1" source="B-qFe6VD0-c9LWoHqvJA-79" target="B-qFe6VD0-c9LWoHqvJA-112" edge="1">
          <mxGeometry relative="1" as="geometry">
            <Array as="points">
              <mxPoint x="2020" y="1050" />
              <mxPoint x="2700" y="1050" />
            </Array>
          </mxGeometry>
        </mxCell>
        <mxCell id="B-qFe6VD0-c9LWoHqvJA-79" value="if user comes&lt;br&gt;listener" style="rhombus;whiteSpace=wrap;html=1;fillColor=#FF00FF;rounded=0;" parent="1" vertex="1">
          <mxGeometry x="1925" y="920" width="100" height="100" as="geometry" />
        </mxCell>
        <mxCell id="B-qFe6VD0-c9LWoHqvJA-82" style="edgeStyle=orthogonalEdgeStyle;rounded=0;orthogonalLoop=1;jettySize=auto;html=1;" parent="1" source="B-qFe6VD0-c9LWoHqvJA-81" target="B-qFe6VD0-c9LWoHqvJA-15" edge="1">
          <mxGeometry relative="1" as="geometry" />
        </mxCell>
        <mxCell id="B-qFe6VD0-c9LWoHqvJA-81" value="cancelOrder sender" style="rounded=0;whiteSpace=wrap;html=1;" parent="1" vertex="1">
          <mxGeometry x="2640" y="1150" width="120" height="60" as="geometry" />
        </mxCell>
        <mxCell id="B-qFe6VD0-c9LWoHqvJA-86" style="edgeStyle=orthogonalEdgeStyle;rounded=0;orthogonalLoop=1;jettySize=auto;html=1;entryX=0.25;entryY=1;entryDx=0;entryDy=0;" parent="1" source="B-qFe6VD0-c9LWoHqvJA-83" target="B-qFe6VD0-c9LWoHqvJA-50" edge="1">
          <mxGeometry relative="1" as="geometry">
            <Array as="points">
              <mxPoint x="-40" y="1350" />
              <mxPoint x="-40" y="1020" />
              <mxPoint x="-130" y="1020" />
              <mxPoint x="-130" y="500" />
              <mxPoint x="310" y="500" />
            </Array>
          </mxGeometry>
        </mxCell>
        <mxCell id="B-qFe6VD0-c9LWoHqvJA-87" value="terminate&lt;br&gt;orchestration" style="edgeLabel;html=1;align=center;verticalAlign=middle;resizable=0;points=[];" parent="B-qFe6VD0-c9LWoHqvJA-86" vertex="1" connectable="0">
          <mxGeometry x="-0.3" y="1" relative="1" as="geometry">
            <mxPoint x="11" as="offset" />
          </mxGeometry>
        </mxCell>
        <mxCell id="B-qFe6VD0-c9LWoHqvJA-83" value="cancelOrderListener&lt;br&gt;Send driver updates if exists" style="rounded=0;whiteSpace=wrap;html=1;" parent="1" vertex="1">
          <mxGeometry x="60" y="1320" width="120" height="60" as="geometry" />
        </mxCell>
        <mxCell id="B-qFe6VD0-c9LWoHqvJA-90" style="edgeStyle=orthogonalEdgeStyle;rounded=0;orthogonalLoop=1;jettySize=auto;html=1;entryX=0;entryY=0.5;entryDx=0;entryDy=0;" parent="1" source="B-qFe6VD0-c9LWoHqvJA-89" target="B-qFe6VD0-c9LWoHqvJA-54" edge="1">
          <mxGeometry relative="1" as="geometry" />
        </mxCell>
        <mxCell id="B-qFe6VD0-c9LWoHqvJA-89" value="driver accepted listener" style="rounded=0;whiteSpace=wrap;html=1;fillColor=#EA6B66;" parent="1" vertex="1">
          <mxGeometry x="110" y="510" width="120" height="60" as="geometry" />
        </mxCell>
        <mxCell id="B-qFe6VD0-c9LWoHqvJA-91" value="waitForNextEvent" style="rounded=0;whiteSpace=wrap;html=1;" parent="1" vertex="1">
          <mxGeometry x="460" y="790" width="120" height="60" as="geometry" />
        </mxCell>
        <mxCell id="B-qFe6VD0-c9LWoHqvJA-95" style="edgeStyle=orthogonalEdgeStyle;rounded=0;orthogonalLoop=1;jettySize=auto;html=1;entryX=0;entryY=0.5;entryDx=0;entryDy=0;" parent="1" source="B-qFe6VD0-c9LWoHqvJA-94" target="B-qFe6VD0-c9LWoHqvJA-89" edge="1">
          <mxGeometry relative="1" as="geometry" />
        </mxCell>
        <mxCell id="B-qFe6VD0-c9LWoHqvJA-96" style="edgeStyle=orthogonalEdgeStyle;rounded=0;orthogonalLoop=1;jettySize=auto;html=1;entryX=0;entryY=0.5;entryDx=0;entryDy=0;" parent="1" source="B-qFe6VD0-c9LWoHqvJA-94" target="B-qFe6VD0-c9LWoHqvJA-60" edge="1">
          <mxGeometry relative="1" as="geometry" />
        </mxCell>
        <mxCell id="B-qFe6VD0-c9LWoHqvJA-99" style="edgeStyle=orthogonalEdgeStyle;rounded=0;orthogonalLoop=1;jettySize=auto;html=1;entryX=0;entryY=0.5;entryDx=0;entryDy=0;" parent="1" source="B-qFe6VD0-c9LWoHqvJA-94" target="B-qFe6VD0-c9LWoHqvJA-74" edge="1">
          <mxGeometry relative="1" as="geometry" />
        </mxCell>
        <mxCell id="-72hbJV1YspDoW3BRcoS-23" style="edgeStyle=orthogonalEdgeStyle;rounded=0;orthogonalLoop=1;jettySize=auto;html=1;entryX=0;entryY=0.75;entryDx=0;entryDy=0;" parent="1" source="B-qFe6VD0-c9LWoHqvJA-94" target="B-qFe6VD0-c9LWoHqvJA-48" edge="1">
          <mxGeometry relative="1" as="geometry">
            <Array as="points">
              <mxPoint x="-70" y="425" />
            </Array>
          </mxGeometry>
        </mxCell>
        <mxCell id="-72hbJV1YspDoW3BRcoS-44" style="edgeStyle=orthogonalEdgeStyle;rounded=0;orthogonalLoop=1;jettySize=auto;html=1;entryX=0;entryY=0.5;entryDx=0;entryDy=0;" parent="1" source="B-qFe6VD0-c9LWoHqvJA-94" target="B-qFe6VD0-c9LWoHqvJA-105" edge="1">
          <mxGeometry relative="1" as="geometry" />
        </mxCell>
        <mxCell id="B-qFe6VD0-c9LWoHqvJA-94" value="" style="image;sketch=0;aspect=fixed;html=1;points=[];align=center;fontSize=12;image=img/lib/mscae/SignalR.svg;" parent="1" vertex="1">
          <mxGeometry x="-100" y="570" width="60" height="60" as="geometry" />
        </mxCell>
        <mxCell id="B-qFe6VD0-c9LWoHqvJA-105" value="userArrived Listener&lt;div&gt;sender&lt;/div&gt;" style="rounded=0;whiteSpace=wrap;html=1;fillColor=#FF00FF;" parent="1" vertex="1">
          <mxGeometry x="60" y="1130" width="120" height="60" as="geometry" />
        </mxCell>
        <mxCell id="B-qFe6VD0-c9LWoHqvJA-108" style="edgeStyle=orthogonalEdgeStyle;rounded=0;orthogonalLoop=1;jettySize=auto;html=1;" parent="1" source="B-qFe6VD0-c9LWoHqvJA-107" edge="1">
          <mxGeometry relative="1" as="geometry">
            <mxPoint x="-130" y="930" as="targetPoint" />
          </mxGeometry>
        </mxCell>
        <mxCell id="B-qFe6VD0-c9LWoHqvJA-107" value="userNotArrived Listener&lt;div&gt;sender&lt;/div&gt;" style="rounded=0;whiteSpace=wrap;html=1;fillColor=#FF00FF;" parent="1" vertex="1">
          <mxGeometry x="60" y="1210" width="120" height="60" as="geometry" />
        </mxCell>
        <mxCell id="B-qFe6VD0-c9LWoHqvJA-112" value="cancelOrder" style="rounded=0;whiteSpace=wrap;html=1;" parent="1" vertex="1">
          <mxGeometry x="2640" y="1080" width="120" height="60" as="geometry" />
        </mxCell>
        <mxCell id="B-qFe6VD0-c9LWoHqvJA-113" style="edgeStyle=orthogonalEdgeStyle;rounded=0;orthogonalLoop=1;jettySize=auto;html=1;entryX=0.117;entryY=0.983;entryDx=0;entryDy=0;entryPerimeter=0;" parent="1" source="B-qFe6VD0-c9LWoHqvJA-112" target="B-qFe6VD0-c9LWoHqvJA-28" edge="1">
          <mxGeometry relative="1" as="geometry">
            <Array as="points">
              <mxPoint x="2780" y="1110" />
              <mxPoint x="2780" y="740" />
              <mxPoint x="1819" y="740" />
            </Array>
          </mxGeometry>
        </mxCell>
        <mxCell id="B-qFe6VD0-c9LWoHqvJA-121" style="edgeStyle=orthogonalEdgeStyle;rounded=0;orthogonalLoop=1;jettySize=auto;html=1;entryX=0.5;entryY=0;entryDx=0;entryDy=0;" parent="1" source="B-qFe6VD0-c9LWoHqvJA-119" target="B-qFe6VD0-c9LWoHqvJA-54" edge="1">
          <mxGeometry relative="1" as="geometry" />
        </mxCell>
        <mxCell id="B-qFe6VD0-c9LWoHqvJA-119" value="assign a driver sender" style="rounded=0;whiteSpace=wrap;html=1;fillColor=#99FF99;" parent="1" vertex="1">
          <mxGeometry x="460" y="530" width="120" height="60" as="geometry" />
        </mxCell>
        <mxCell id="B-qFe6VD0-c9LWoHqvJA-122" style="edgeStyle=orthogonalEdgeStyle;rounded=0;orthogonalLoop=1;jettySize=auto;html=1;entryX=0.009;entryY=0.289;entryDx=0;entryDy=0;entryPerimeter=0;" parent="1" source="B-qFe6VD0-c9LWoHqvJA-119" target="B-qFe6VD0-c9LWoHqvJA-15" edge="1">
          <mxGeometry relative="1" as="geometry" />
        </mxCell>
        <mxCell id="-72hbJV1YspDoW3BRcoS-8" style="edgeStyle=orthogonalEdgeStyle;rounded=0;orthogonalLoop=1;jettySize=auto;html=1;" parent="1" source="-72hbJV1YspDoW3BRcoS-2" target="-72hbJV1YspDoW3BRcoS-7" edge="1">
          <mxGeometry relative="1" as="geometry" />
        </mxCell>
        <mxCell id="-72hbJV1YspDoW3BRcoS-2" value="driver selected notify listener" style="rounded=0;whiteSpace=wrap;html=1;fillColor=#99FF99;" parent="1" vertex="1">
          <mxGeometry x="2470" y="945" width="110" height="55" as="geometry" />
        </mxCell>
        <mxCell id="-72hbJV1YspDoW3BRcoS-9" style="edgeStyle=orthogonalEdgeStyle;rounded=0;orthogonalLoop=1;jettySize=auto;html=1;" parent="1" source="-72hbJV1YspDoW3BRcoS-7" target="B-qFe6VD0-c9LWoHqvJA-68" edge="1">
          <mxGeometry relative="1" as="geometry" />
        </mxCell>
        <mxCell id="-72hbJV1YspDoW3BRcoS-7" value="driver accepted Listener" style="whiteSpace=wrap;html=1;fillColor=#EA6B66;rounded=0;" parent="1" vertex="1">
          <mxGeometry x="2330" y="942.5" width="120" height="60" as="geometry" />
        </mxCell>
        <mxCell id="-72hbJV1YspDoW3BRcoS-15" style="edgeStyle=orthogonalEdgeStyle;rounded=0;orthogonalLoop=1;jettySize=auto;html=1;entryX=0.5;entryY=0;entryDx=0;entryDy=0;" parent="1" source="-72hbJV1YspDoW3BRcoS-13" target="B-qFe6VD0-c9LWoHqvJA-119" edge="1">
          <mxGeometry relative="1" as="geometry" />
        </mxCell>
        <mxCell id="-72hbJV1YspDoW3BRcoS-13" value="waitForEvent (payment)" style="rounded=0;whiteSpace=wrap;html=1;" parent="1" vertex="1">
          <mxGeometry x="460" y="435" width="120" height="60" as="geometry" />
        </mxCell>
        <mxCell id="-72hbJV1YspDoW3BRcoS-16" value="payment listener" style="rounded=0;whiteSpace=wrap;html=1;fillColor=#3399FF;" parent="1" vertex="1">
          <mxGeometry x="110" y="720" width="120" height="60" as="geometry" />
        </mxCell>
        <mxCell id="-72hbJV1YspDoW3BRcoS-18" value="driver reject listener" style="rounded=0;whiteSpace=wrap;html=1;fillColor=#EA6B66;" parent="1" vertex="1">
          <mxGeometry x="110" y="795" width="120" height="60" as="geometry" />
        </mxCell>
        <mxCell id="-72hbJV1YspDoW3BRcoS-19" style="edgeStyle=orthogonalEdgeStyle;rounded=0;orthogonalLoop=1;jettySize=auto;html=1;" parent="1" source="-72hbJV1YspDoW3BRcoS-18" edge="1">
          <mxGeometry relative="1" as="geometry">
            <mxPoint x="460" y="650" as="targetPoint" />
            <Array as="points">
              <mxPoint x="270" y="825" />
              <mxPoint x="270" y="830" />
              <mxPoint x="420" y="830" />
              <mxPoint x="420" y="650" />
            </Array>
          </mxGeometry>
        </mxCell>
        <mxCell id="-72hbJV1YspDoW3BRcoS-22" style="edgeStyle=orthogonalEdgeStyle;rounded=0;orthogonalLoop=1;jettySize=auto;html=1;" parent="1" source="B-qFe6VD0-c9LWoHqvJA-48" target="B-qFe6VD0-c9LWoHqvJA-15" edge="1">
          <mxGeometry relative="1" as="geometry">
            <Array as="points">
              <mxPoint x="-60" y="410" />
              <mxPoint x="-60" y="100" />
              <mxPoint x="1080" y="100" />
              <mxPoint x="1080" y="412" />
            </Array>
          </mxGeometry>
        </mxCell>
        <mxCell id="-72hbJV1YspDoW3BRcoS-28" style="edgeStyle=orthogonalEdgeStyle;rounded=0;orthogonalLoop=1;jettySize=auto;html=1;entryX=1;entryY=0.5;entryDx=0;entryDy=0;" parent="1" source="-72hbJV1YspDoW3BRcoS-25" target="-72hbJV1YspDoW3BRcoS-27" edge="1">
          <mxGeometry relative="1" as="geometry">
            <Array as="points">
              <mxPoint x="2065" y="260" />
            </Array>
          </mxGeometry>
        </mxCell>
        <mxCell id="-72hbJV1YspDoW3BRcoS-29" value="nop" style="edgeLabel;html=1;align=center;verticalAlign=middle;resizable=0;points=[];" parent="-72hbJV1YspDoW3BRcoS-28" vertex="1" connectable="0">
          <mxGeometry x="0.0861" y="2" relative="1" as="geometry">
            <mxPoint as="offset" />
          </mxGeometry>
        </mxCell>
        <mxCell id="-72hbJV1YspDoW3BRcoS-31" style="edgeStyle=orthogonalEdgeStyle;rounded=0;orthogonalLoop=1;jettySize=auto;html=1;entryX=0;entryY=0.5;entryDx=0;entryDy=0;" parent="1" source="-72hbJV1YspDoW3BRcoS-25" target="-72hbJV1YspDoW3BRcoS-30" edge="1">
          <mxGeometry relative="1" as="geometry" />
        </mxCell>
        <mxCell id="-72hbJV1YspDoW3BRcoS-25" value="accept?" style="rhombus;whiteSpace=wrap;html=1;" parent="1" vertex="1">
          <mxGeometry x="2025" y="130" width="80" height="80" as="geometry" />
        </mxCell>
        <mxCell id="-72hbJV1YspDoW3BRcoS-27" value="reject sender" style="rounded=0;whiteSpace=wrap;html=1;fillColor=#EA6B66;" parent="1" vertex="1">
          <mxGeometry x="1830" y="230" width="120" height="60" as="geometry" />
        </mxCell>
        <mxCell id="-72hbJV1YspDoW3BRcoS-33" style="edgeStyle=orthogonalEdgeStyle;rounded=0;orthogonalLoop=1;jettySize=auto;html=1;entryX=0.5;entryY=0;entryDx=0;entryDy=0;" parent="1" source="-72hbJV1YspDoW3BRcoS-30" target="-72hbJV1YspDoW3BRcoS-32" edge="1">
          <mxGeometry relative="1" as="geometry" />
        </mxCell>
        <mxCell id="-72hbJV1YspDoW3BRcoS-30" value="accept sender" style="rounded=0;whiteSpace=wrap;html=1;fillColor=#EA6B66;" parent="1" vertex="1">
          <mxGeometry x="2175" y="140" width="120" height="60" as="geometry" />
        </mxCell>
        <mxCell id="-72hbJV1YspDoW3BRcoS-35" style="edgeStyle=orthogonalEdgeStyle;rounded=0;orthogonalLoop=1;jettySize=auto;html=1;entryX=0;entryY=0.5;entryDx=0;entryDy=0;" parent="1" source="-72hbJV1YspDoW3BRcoS-32" target="-72hbJV1YspDoW3BRcoS-34" edge="1">
          <mxGeometry relative="1" as="geometry" />
        </mxCell>
        <mxCell id="-72hbJV1YspDoW3BRcoS-32" value="drive" style="rounded=0;whiteSpace=wrap;html=1;fillColor=#000000;" parent="1" vertex="1">
          <mxGeometry x="2175" y="240" width="120" height="60" as="geometry" />
        </mxCell>
        <mxCell id="-72hbJV1YspDoW3BRcoS-37" style="edgeStyle=orthogonalEdgeStyle;rounded=0;orthogonalLoop=1;jettySize=auto;html=1;entryX=0.5;entryY=1;entryDx=0;entryDy=0;" parent="1" source="-72hbJV1YspDoW3BRcoS-34" target="-72hbJV1YspDoW3BRcoS-36" edge="1">
          <mxGeometry relative="1" as="geometry" />
        </mxCell>
        <mxCell id="-72hbJV1YspDoW3BRcoS-34" value="arrived at user sender" style="rounded=0;whiteSpace=wrap;html=1;fillColor=#FF0080;" parent="1" vertex="1">
          <mxGeometry x="2330" y="240" width="120" height="60" as="geometry" />
        </mxCell>
        <mxCell id="-72hbJV1YspDoW3BRcoS-40" style="edgeStyle=orthogonalEdgeStyle;rounded=0;orthogonalLoop=1;jettySize=auto;html=1;" parent="1" source="-72hbJV1YspDoW3BRcoS-36" target="-72hbJV1YspDoW3BRcoS-38" edge="1">
          <mxGeometry relative="1" as="geometry">
            <Array as="points">
              <mxPoint x="2300" y="170" />
            </Array>
          </mxGeometry>
        </mxCell>
        <mxCell id="-72hbJV1YspDoW3BRcoS-41" value="no" style="edgeLabel;html=1;align=center;verticalAlign=middle;resizable=0;points=[];" parent="-72hbJV1YspDoW3BRcoS-40" vertex="1" connectable="0">
          <mxGeometry x="0.5124" relative="1" as="geometry">
            <mxPoint y="1" as="offset" />
          </mxGeometry>
        </mxCell>
        <mxCell id="-72hbJV1YspDoW3BRcoS-36" value="user comes?" style="rhombus;whiteSpace=wrap;html=1;" parent="1" vertex="1">
          <mxGeometry x="2340" y="125" width="100" height="90" as="geometry" />
        </mxCell>
        <mxCell id="-72hbJV1YspDoW3BRcoS-38" value="cancelOrder sender" style="rounded=0;whiteSpace=wrap;html=1;" parent="1" vertex="1">
          <mxGeometry x="2215" y="20" width="120" height="60" as="geometry" />
        </mxCell>
        <mxCell id="-72hbJV1YspDoW3BRcoS-39" value="user arrived sender" style="rounded=0;whiteSpace=wrap;html=1;" parent="1" vertex="1">
          <mxGeometry x="2430" y="20" width="120" height="60" as="geometry" />
        </mxCell>
        <mxCell id="-72hbJV1YspDoW3BRcoS-42" style="edgeStyle=orthogonalEdgeStyle;rounded=0;orthogonalLoop=1;jettySize=auto;html=1;entryX=0.655;entryY=1.02;entryDx=0;entryDy=0;entryPerimeter=0;" parent="1" source="-72hbJV1YspDoW3BRcoS-36" target="-72hbJV1YspDoW3BRcoS-39" edge="1">
          <mxGeometry relative="1" as="geometry" />
        </mxCell>
        <mxCell id="-72hbJV1YspDoW3BRcoS-43" value="yes" style="edgeLabel;html=1;align=center;verticalAlign=middle;resizable=0;points=[];" parent="-72hbJV1YspDoW3BRcoS-42" vertex="1" connectable="0">
          <mxGeometry x="0.3235" y="-5" relative="1" as="geometry">
            <mxPoint as="offset" />
          </mxGeometry>
        </mxCell>
        <mxCell id="agoMaNb05s4EAwkdl01l-8" value="" style="image;aspect=fixed;perimeter=ellipsePerimeter;html=1;align=center;shadow=0;dashed=0;fontColor=#4277BB;labelBackgroundColor=default;fontSize=12;spacingTop=3;image=img/lib/ibm/blockchain/event_listener.svg;" vertex="1" parent="1">
          <mxGeometry x="90" y="160" width="40" height="40" as="geometry" />
        </mxCell>
        <mxCell id="agoMaNb05s4EAwkdl01l-9" value="" style="image;sketch=0;aspect=fixed;html=1;points=[];align=center;fontSize=12;image=img/lib/mscae/SignalR.svg;" vertex="1" parent="1">
          <mxGeometry x="1980" y="-130" width="30" height="30" as="geometry" />
        </mxCell>
        <mxCell id="agoMaNb05s4EAwkdl01l-10" value="" style="image;sketch=0;aspect=fixed;html=1;points=[];align=center;fontSize=12;image=img/lib/mscae/SignalR.svg;" vertex="1" parent="1">
          <mxGeometry x="1920" y="650" width="30" height="30" as="geometry" />
        </mxCell>
        <mxCell id="agoMaNb05s4EAwkdl01l-11" value="" style="image;sketch=0;aspect=fixed;html=1;points=[];align=center;fontSize=12;image=img/lib/mscae/SignalR.svg;" vertex="1" parent="1">
          <mxGeometry x="1960" y="-20" width="30" height="30" as="geometry" />
        </mxCell>
        <mxCell id="agoMaNb05s4EAwkdl01l-12" value="" style="image;sketch=0;aspect=fixed;html=1;points=[];align=center;fontSize=12;image=img/lib/mscae/SignalR.svg;" vertex="1" parent="1">
          <mxGeometry x="80" y="330" width="30" height="30" as="geometry" />
        </mxCell>
        <mxCell id="agoMaNb05s4EAwkdl01l-13" value="" style="image;aspect=fixed;perimeter=ellipsePerimeter;html=1;align=center;shadow=0;dashed=0;fontColor=#4277BB;labelBackgroundColor=default;fontSize=12;spacingTop=3;image=img/lib/ibm/blockchain/event_listener.svg;" vertex="1" parent="1">
          <mxGeometry x="70" y="250" width="40" height="40" as="geometry" />
        </mxCell>
        <mxCell id="agoMaNb05s4EAwkdl01l-14" value="UpdateDriversLocation&lt;br&gt;Listener&lt;div&gt;userId, groupName, location&lt;/div&gt;" style="rounded=0;whiteSpace=wrap;html=1;fillColor=#CCCC00;" vertex="1" parent="1">
          <mxGeometry x="2085" y="-80" width="155" height="60" as="geometry" />
        </mxCell>
        <mxCell id="agoMaNb05s4EAwkdl01l-15" value="" style="image;aspect=fixed;perimeter=ellipsePerimeter;html=1;align=center;shadow=0;dashed=0;fontColor=#4277BB;labelBackgroundColor=default;fontSize=12;spacingTop=3;image=img/lib/ibm/blockchain/event_listener.svg;" vertex="1" parent="1">
          <mxGeometry x="2060" y="-95" width="35" height="35" as="geometry" />
        </mxCell>
        <mxCell id="agoMaNb05s4EAwkdl01l-16" value="UpdateDriversLocation&lt;br&gt;Listener&lt;div&gt;userId, groupName, location&lt;/div&gt;" style="rounded=0;whiteSpace=wrap;html=1;fillColor=#CCCC00;" vertex="1" parent="1">
          <mxGeometry x="2020" y="655" width="155" height="60" as="geometry" />
        </mxCell>
        <mxCell id="agoMaNb05s4EAwkdl01l-17" value="" style="image;aspect=fixed;perimeter=ellipsePerimeter;html=1;align=center;shadow=0;dashed=0;fontColor=#4277BB;labelBackgroundColor=default;fontSize=12;spacingTop=3;image=img/lib/ibm/blockchain/event_listener.svg;" vertex="1" parent="1">
          <mxGeometry x="1995" y="640" width="35" height="35" as="geometry" />
        </mxCell>
      </root>
    </mxGraphModel>
  </diagram>
</mxfile>
